<svg id="visual" viewBox="0 0 675 900" width="675" height="900" xmlns="http://www.w3.org/2000/svg" xmlns:xlink="http://www.w3.org/1999/xlink" version="1.1"><rect x="0" y="0" width="675" height="900" fill="#0c1720"></rect><defs><linearGradient id="grad1_0" x1="0%" y1="0%" x2="100%" y2="100%"><stop offset="30%" stop-color="#0146ad" stop-opacity="1"></stop><stop offset="70%" stop-color="#0146ad" stop-opacity="1"></stop></linearGradient></defs><defs><linearGradient id="grad1_1" x1="0%" y1="0%" x2="100%" y2="100%"><stop offset="30%" stop-color="#0146ad" stop-opacity="1"></stop><stop offset="70%" stop-color="#003a7e" stop-opacity="1"></stop></linearGradient></defs><defs><linearGradient id="grad1_2" x1="0%" y1="0%" x2="100%" y2="100%"><stop offset="30%" stop-color="#00294d" stop-opacity="1"></stop><stop offset="70%" stop-color="#003a7e" stop-opacity="1"></stop></linearGradient></defs><defs><linearGradient id="grad1_3" x1="0%" y1="0%" x2="100%" y2="100%"><stop offset="30%" stop-color="#00294d" stop-opacity="1"></stop><stop offset="70%" stop-color="#0c1720" stop-opacity="1"></stop></linearGradient></defs><defs><linearGradient id="grad2_0" x1="0%" y1="0%" x2="100%" y2="100%"><stop offset="30%" stop-color="#0146ad" stop-opacity="1"></stop><stop offset="70%" stop-color="#0146ad" stop-opacity="1"></stop></linearGradient></defs><defs><linearGradient id="grad2_1" x1="0%" y1="0%" x2="100%" y2="100%"><stop offset="30%" stop-color="#003a7e" stop-opacity="1"></stop><stop offset="70%" stop-color="#0146ad" stop-opacity="1"></stop></linearGradient></defs><defs><linearGradient id="grad2_2" x1="0%" y1="0%" x2="100%" y2="100%"><stop offset="30%" stop-color="#003a7e" stop-opacity="1"></stop><stop offset="70%" stop-color="#00294d" stop-opacity="1"></stop></linearGradient></defs><defs><linearGradient id="grad2_3" x1="0%" y1="0%" x2="100%" y2="100%"><stop offset="30%" stop-color="#0c1720" stop-opacity="1"></stop><stop offset="70%" stop-color="#00294d" stop-opacity="1"></stop></linearGradient></defs><g transform="translate(675, 0)"><path d="M0 478.1C-39.7 466.8 -79.4 455.4 -119.3 445.3C-159.3 435.2 -199.5 426.4 -236.5 409.6C-273.5 392.8 -307.4 368.1 -338.1 338.1C-368.8 308.1 -396.4 272.9 -403.6 233C-410.8 193.1 -397.6 148.6 -406.7 109C-415.7 69.4 -446.9 34.7 -478.1 0L0 0Z" fill="#012036"></path><path d="M0 358.6C-29.8 350.1 -59.5 341.5 -89.5 334C-119.4 326.4 -149.6 319.8 -177.4 307.2C-205.1 294.6 -230.5 276.1 -253.6 253.6C-276.6 231.1 -297.3 204.7 -302.7 174.8C-308.1 144.8 -298.2 111.4 -305 81.7C-311.8 52 -335.2 26 -358.6 0L0 0Z" fill="#003265"></path><path d="M0 239.1C-19.8 233.4 -39.7 227.7 -59.7 222.6C-79.6 217.6 -99.7 213.2 -118.2 204.8C-136.8 196.4 -153.7 184 -169 169C-184.4 154 -198.2 136.4 -201.8 116.5C-205.4 96.6 -198.8 74.3 -203.3 54.5C-207.8 34.7 -223.5 17.3 -239.1 0L0 0Z" fill="#004196"></path><path d="M0 119.5C-9.9 116.7 -19.8 113.8 -29.8 111.3C-39.8 108.8 -49.9 106.6 -59.1 102.4C-68.4 98.2 -76.8 92 -84.5 84.5C-92.2 77 -99.1 68.2 -100.9 58.3C-102.7 48.3 -99.4 37.1 -101.7 27.2C-103.9 17.3 -111.7 8.7 -119.5 0L0 0Z" fill="#0146ad"></path></g><g transform="translate(0, 900)"><path d="M0 -478.1C45.7 -482.3 91.4 -486.4 123.7 -461.8C156.1 -437.3 175.2 -383.9 208 -360.3C240.8 -336.6 287.2 -342.5 327.4 -327.4C367.6 -312.2 401.7 -276 405.3 -234C408.9 -192 382.2 -144.3 389.3 -104.3C396.3 -64.3 437.2 -32.2 478.1 0L0 0Z" fill="#012036"></path><path d="M0 -358.6C34.3 -361.7 68.5 -364.8 92.8 -346.4C117.1 -327.9 131.4 -288 156 -270.2C180.6 -252.4 215.4 -256.9 245.5 -245.5C275.7 -234.2 301.2 -207 304 -175.5C306.7 -144 286.6 -108.2 292 -78.2C297.3 -48.3 327.9 -24.1 358.6 0L0 0Z" fill="#003265"></path><path d="M0 -239.1C22.8 -241.1 45.7 -243.2 61.9 -230.9C78.1 -218.6 87.6 -192 104 -180.1C120.4 -168.3 143.6 -171.3 163.7 -163.7C183.8 -156.1 200.8 -138 202.6 -117C204.5 -96 191.1 -72.1 194.6 -52.2C198.2 -32.2 218.6 -16.1 239.1 0L0 0Z" fill="#004196"></path><path d="M0 -119.5C11.4 -120.6 22.8 -121.6 30.9 -115.5C39 -109.3 43.8 -96 52 -90.1C60.2 -84.1 71.8 -85.6 81.8 -81.8C91.9 -78.1 100.4 -69 101.3 -58.5C102.2 -48 95.5 -36.1 97.3 -26.1C99.1 -16.1 109.3 -8 119.5 0L0 0Z" fill="#0146ad"></path></g></svg>